<?xml version="1.0" encoding="UTF-8" standalone="no"?>
<!-- Created with Inkscape (http://www.inkscape.org/) -->

<svg
   version="1.1"
   id="svg1"
   width="1102.8496"
   height="1123.3246"
   viewBox="0 0 1102.8496 1123.3246"
   xml:space="preserve"
   xmlns="http://www.w3.org/2000/svg"
   xmlns:svg="http://www.w3.org/2000/svg"><defs
     id="defs1"><style
       id="style1">.cls-1 { fill: #020000; } .cls-1, .cls-2 { stroke-width: 10px; } .cls-1, .cls-2, .cls-3 { stroke: #000; stroke-miterlimit: 10; } .cls-2, .cls-4 { fill: #fff; } .cls-5, .cls-3 { fill: none; } .cls-3 { stroke-width: 9px; }</style></defs><g
     id="g1"
     style="display:inline"
     transform="translate(-6469.5035,-385.99538)"><rect
       style="fill:#f6f5f4;fill-opacity:1;stroke:#000000;stroke-width:2.79578;stroke-linejoin:round;paint-order:markers stroke fill"
       id="rect4"
       width="1100.0537"
       height="1120.5288"
       x="6470.9014"
       y="387.39328" /><g
       id="g4"
       transform="translate(6523.8682,447.65768)"><rect
         class="cls-2"
         x="214.06"
         y="214.06"
         width="571.88"
         height="571.88"
         rx="20.030001"
         ry="20.030001"
         id="rect1" /><rect
         class="cls-1"
         transform="rotate(90,500,500)"
         x="244.06"
         y="244.06"
         width="511.88"
         height="511.88"
         rx="4.7399998"
         ry="4.7399998"
         id="rect2" /><rect
         class="cls-2"
         transform="rotate(90,500,500)"
         x="274.06"
         y="274.06"
         width="451.88"
         height="451.88"
         rx="4.1999998"
         ry="4.1999998"
         id="rect3-7" /><line
         class="cls-3"
         x1="500"
         x2="500"
         y1="214.06"
         y2="76.360001"
         id="line3" /><path
         class="cls-4"
         d="m 533.84,78.28 c 0,-18.69 -15.15,-33.84 -33.84,-33.84 -18.69,0 -33.84,15.15 -33.84,33.84 0,18.69 15.15,33.84 33.84,33.84 18.69,0 33.84,-15.15 33.84,-33.84 z"
         id="path3" /><path
         d="m 538.34,78.28 c 0,21.14 -17.2,38.34 -38.34,38.34 -21.14,0 -38.34,-17.2 -38.34,-38.34 0,-21.14 17.2,-38.34 38.34,-38.34 21.14,0 38.34,17.2 38.34,38.34 0,21.14 0,-21.14 0,0 z m -67.68,0 c 0,16.18 13.16,29.34 29.34,29.34 16.18,0 29.34,-13.16 29.34,-29.34 0,-16.18 -13.16,-29.34 -29.34,-29.34 -16.18,0 -29.34,13.16 -29.34,29.34 0,16.18 0,-16.18 0,0 z"
         id="path4" /><line
         class="cls-3"
         x1="208.17999"
         x2="70.480003"
         y1="507.70999"
         y2="507.70999"
         id="line4" /><path
         class="cls-4"
         d="m 72.4,473.87 c -18.69,0 -33.84,15.15 -33.84,33.84 0,18.69 15.15,33.84 33.84,33.84 18.69,0 33.84,-15.15 33.84,-33.84 0,-18.69 -15.15,-33.84 -33.84,-33.84 z"
         id="path5" /><path
         d="m 72.4,469.37 c 21.14,0 38.34,17.2 38.34,38.34 0,21.14 -17.2,38.34 -38.34,38.34 -21.14,0 -38.34,-17.2 -38.34,-38.34 0,-21.14 17.2,-38.34 38.34,-38.34 21.14,0 -21.14,0 0,0 z m 0,67.67 c 16.18,0 29.34,-13.16 29.34,-29.34 0,-16.18 -13.16,-29.34 -29.34,-29.34 -16.18,0 -29.34,13.16 -29.34,29.34 0,16.18 13.16,29.34 29.34,29.34 16.18,0 -16.18,0 0,0 z"
         id="path6" /><line
         class="cls-3"
         x1="785.94"
         x2="923.64001"
         y1="500"
         y2="500"
         id="line6" /><path
         class="cls-4"
         d="m 921.72,533.84 c 18.69,0 33.84,-15.15 33.84,-33.84 0,-18.69 -15.15,-33.84 -33.84,-33.84 -18.69,0 -33.84,15.15 -33.84,33.84 0,18.69 15.15,33.84 33.84,33.84 z"
         id="path7" /><path
         d="m 921.72,538.34 c -21.14,0 -38.34,-17.2 -38.34,-38.34 0,-21.14 17.2,-38.34 38.34,-38.34 21.14,0 38.34,17.2 38.34,38.34 0,21.14 -17.2,38.34 -38.34,38.34 -21.14,0 21.14,0 0,0 z m 0,-67.68 c -16.18,0 -29.34,13.16 -29.34,29.34 0,16.18 13.16,29.34 29.34,29.34 16.18,0 29.34,-13.16 29.34,-29.34 0,-16.18 -13.16,-29.34 -29.34,-29.34 -16.18,0 16.18,0 0,0 z"
         id="path8" /><line
         class="cls-3"
         x1="500"
         x2="500"
         y1="785.94"
         y2="923.64001"
         id="line8" /><path
         class="cls-4"
         d="m 466.16,921.72 c 0,18.69 15.15,33.84 33.84,33.84 18.69,0 33.84,-15.15 33.84,-33.84 0,-18.69 -15.15,-33.84 -33.84,-33.84 -18.69,0 -33.84,15.15 -33.84,33.84 z"
         id="path9" /><path
         d="m 461.66,921.72 c 0,-21.14 17.2,-38.34 38.34,-38.34 21.14,0 38.34,17.2 38.34,38.34 0,21.14 -17.2,38.34 -38.34,38.34 -21.14,0 -38.34,-17.2 -38.34,-38.34 0,-21.14 0,21.14 0,0 z m 67.68,0 c 0,-16.18 -13.16,-29.34 -29.34,-29.34 -16.18,0 -29.34,13.16 -29.34,29.34 0,16.18 13.16,29.34 29.34,29.34 16.18,0 29.34,-13.16 29.34,-29.34 0,-16.18 0,16.18 0,0 z"
         id="path10" /><line
         class="cls-3"
         x1="335.17999"
         x2="335.17999"
         y1="214.06"
         y2="76.360001"
         id="line10" /><path
         class="cls-4"
         d="m 369.01,78.28 c 0,-18.69 -15.15,-33.84 -33.84,-33.84 -18.69,0 -33.84,15.15 -33.84,33.84 0,18.69 15.15,33.84 33.84,33.84 18.69,0 33.84,-15.15 33.84,-33.84 z"
         id="path11" /><path
         d="m 373.51,78.28 c 0,21.14 -17.2,38.34 -38.34,38.34 -21.14,0 -38.34,-17.2 -38.34,-38.34 0,-21.14 17.2,-38.34 38.34,-38.34 21.14,0 38.34,17.2 38.34,38.34 0,21.14 0,-21.14 0,0 z m -67.67,0 c 0,16.18 13.16,29.34 29.34,29.34 16.18,0 29.34,-13.16 29.34,-29.34 0,-16.18 -13.16,-29.34 -29.34,-29.34 -16.18,0 -29.34,13.16 -29.34,29.34 0,16.18 0,-16.18 0,0 z"
         id="path12" /><line
         class="cls-3"
         x1="664.82001"
         x2="664.82001"
         y1="214.06"
         y2="76.360001"
         id="line12" /><path
         class="cls-4"
         d="m 698.66,78.28 c 0,-18.69 -15.15,-33.84 -33.84,-33.84 -18.69,0 -33.84,15.15 -33.84,33.84 0,18.69 15.15,33.84 33.84,33.84 18.69,0 33.84,-15.15 33.84,-33.84 z"
         id="path13" /><path
         d="m 703.16,78.28 c 0,21.14 -17.2,38.34 -38.34,38.34 -21.14,0 -38.34,-17.2 -38.34,-38.34 0,-21.14 17.2,-38.34 38.34,-38.34 21.14,0 38.34,17.2 38.34,38.34 0,21.14 0,-21.14 0,0 z m -67.67,0 c 0,16.18 13.16,29.34 29.34,29.34 16.18,0 29.34,-13.16 29.34,-29.34 0,-16.18 -13.16,-29.34 -29.34,-29.34 -16.18,0 -29.34,13.16 -29.34,29.34 0,16.18 0,-16.18 0,0 z"
         id="path14" /><line
         class="cls-3"
         x1="664.82001"
         x2="664.82001"
         y1="785.94"
         y2="923.64001"
         id="line14" /><path
         class="cls-4"
         d="m 630.99,921.72 c 0,18.69 15.15,33.84 33.84,33.84 18.69,0 33.84,-15.15 33.84,-33.84 0,-18.69 -15.15,-33.84 -33.84,-33.84 -18.69,0 -33.84,15.15 -33.84,33.84 z"
         id="path15" /><path
         d="m 626.49,921.72 c 0,-21.14 17.2,-38.34 38.34,-38.34 21.14,0 38.34,17.2 38.34,38.34 0,21.14 -17.2,38.34 -38.34,38.34 -21.14,0 -38.34,-17.2 -38.34,-38.34 0,-21.14 0,21.14 0,0 z m 67.67,0 c 0,-16.18 -13.16,-29.34 -29.34,-29.34 -16.18,0 -29.34,13.16 -29.34,29.34 0,16.18 13.16,29.34 29.34,29.34 16.18,0 29.34,-13.16 29.34,-29.34 0,-16.18 0,16.18 0,0 z"
         id="path16" /><line
         class="cls-3"
         x1="335.17999"
         x2="335.17999"
         y1="785.94"
         y2="923.64001"
         id="line16" /><path
         class="cls-4"
         d="m 301.34,921.72 c 0,18.69 15.15,33.84 33.84,33.84 18.69,0 33.84,-15.15 33.84,-33.84 0,-18.69 -15.15,-33.84 -33.84,-33.84 -18.69,0 -33.84,15.15 -33.84,33.84 z"
         id="path17" /><path
         d="m 296.84,921.72 c 0,-21.14 17.2,-38.34 38.34,-38.34 21.14,0 38.34,17.2 38.34,38.34 0,21.14 -17.2,38.34 -38.34,38.34 -21.14,0 -38.34,-17.2 -38.34,-38.34 0,-21.14 0,21.14 0,0 z m 67.67,0 c 0,-16.18 -13.16,-29.34 -29.34,-29.34 -16.18,0 -29.34,13.16 -29.34,29.34 0,16.18 13.16,29.34 29.34,29.34 16.18,0 29.34,-13.16 29.34,-29.34 0,-16.18 0,16.18 0,0 z"
         id="path18" /><line
         class="cls-3"
         x1="208.17999"
         x2="70.480003"
         y1="349.47"
         y2="349.47"
         id="line18" /><path
         class="cls-4"
         d="m 72.4,315.63 c -18.69,0 -33.84,15.15 -33.84,33.84 0,18.69 15.15,33.84 33.84,33.84 18.69,0 33.84,-15.15 33.84,-33.84 0,-18.69 -15.15,-33.84 -33.84,-33.84 z"
         id="path19" /><path
         d="m 72.4,311.13 c 21.14,0 38.34,17.2 38.34,38.34 0,21.14 -17.2,38.34 -38.34,38.34 -21.14,0 -38.34,-17.2 -38.34,-38.34 0,-21.14 17.2,-38.34 38.34,-38.34 21.14,0 -21.14,0 0,0 z m 0,67.68 c 16.18,0 29.34,-13.16 29.34,-29.34 0,-16.18 -13.16,-29.34 -29.34,-29.34 -16.18,0 -29.34,13.16 -29.34,29.34 0,16.18 13.16,29.34 29.34,29.34 16.18,0 -16.18,0 0,0 z"
         id="path20" /><line
         class="cls-3"
         x1="208.17999"
         x2="70.480003"
         y1="665.94"
         y2="665.94"
         id="line20" /><path
         class="cls-4"
         d="m 72.4,632.1 c -18.69,0 -33.84,15.15 -33.84,33.84 0,18.69 15.15,33.84 33.84,33.84 18.69,0 33.84,-15.15 33.84,-33.84 0,-18.69 -15.15,-33.84 -33.84,-33.84 z"
         id="path21" /><path
         d="m 72.4,627.6 c 21.14,0 38.34,17.2 38.34,38.34 0,21.14 -17.2,38.34 -38.34,38.34 -21.14,0 -38.34,-17.2 -38.34,-38.34 0,-21.14 17.2,-38.34 38.34,-38.34 21.14,0 -21.14,0 0,0 z m 0,67.68 c 16.18,0 29.34,-13.16 29.34,-29.34 0,-16.18 -13.16,-29.34 -29.34,-29.34 -16.18,0 -29.34,13.16 -29.34,29.34 0,16.18 13.16,29.34 29.34,29.34 16.18,0 -16.18,0 0,0 z"
         id="path22" /><line
         class="cls-3"
         x1="785.94"
         x2="923.64001"
         y1="349.47"
         y2="349.47"
         id="line22" /><path
         class="cls-4"
         d="m 921.72,383.31 c 18.69,0 33.84,-15.15 33.84,-33.84 0,-18.69 -15.15,-33.84 -33.84,-33.84 -18.69,0 -33.84,15.15 -33.84,33.84 0,18.69 15.15,33.84 33.84,33.84 z"
         id="path23" /><path
         d="m 921.72,387.81 c -21.14,0 -38.34,-17.2 -38.34,-38.34 0,-21.14 17.2,-38.34 38.34,-38.34 21.14,0 38.34,17.2 38.34,38.34 0,21.14 -17.2,38.34 -38.34,38.34 -21.14,0 21.14,0 0,0 z m 0,-67.68 c -16.18,0 -29.34,13.16 -29.34,29.34 0,16.18 13.16,29.34 29.34,29.34 16.18,0 29.34,-13.16 29.34,-29.34 0,-16.18 -13.16,-29.34 -29.34,-29.34 -16.18,0 16.18,0 0,0 z"
         id="path24" /><line
         class="cls-3"
         x1="785.94"
         x2="923.64001"
         y1="665.94"
         y2="665.94"
         id="line24" /><path
         class="cls-4"
         d="m 921.72,699.78 c 18.69,0 33.84,-15.15 33.84,-33.84 0,-18.69 -15.15,-33.84 -33.84,-33.84 -18.69,0 -33.84,15.15 -33.84,33.84 0,18.69 15.15,33.84 33.84,33.84 z"
         id="path25" /><path
         d="m 921.72,704.28 c -21.14,0 -38.34,-17.2 -38.34,-38.34 0,-21.14 17.2,-38.34 38.34,-38.34 21.14,0 38.34,17.2 38.34,38.34 0,21.14 -17.2,38.34 -38.34,38.34 -21.14,0 21.14,0 0,0 z m 0,-67.68 c -16.18,0 -29.34,13.16 -29.34,29.34 0,16.18 13.16,29.34 29.34,29.34 16.18,0 29.34,-13.16 29.34,-29.34 0,-16.18 -13.16,-29.34 -29.34,-29.34 -16.18,0 16.18,0 0,0 z"
         id="path26" /><rect
         class="cls-1"
         x="614.19"
         y="304.57001"
         width="71.68"
         height="71.68"
         id="rect26" /><rect
         class="cls-1"
         x="614.19"
         y="410.95999"
         width="71.68"
         height="71.68"
         id="rect27" /><rect
         class="cls-1"
         x="614.19"
         y="517.34998"
         width="71.68"
         height="71.68"
         id="rect28" /><rect
         class="cls-1"
         x="614.19"
         y="623.73999"
         width="71.68"
         height="71.68"
         id="rect29" /><rect
         class="cls-5"
         x="297"
         y="308.81"
         width="406"
         height="382.38"
         id="rect30" /><rect
         class="cls-1"
         x="467.62"
         y="304.57001"
         width="71.68"
         height="71.68"
         id="rect31" /><rect
         class="cls-1"
         x="467.62"
         y="410.95999"
         width="71.68"
         height="71.68"
         id="rect32" /><rect
         class="cls-1"
         x="467.62"
         y="517.34998"
         width="71.68"
         height="71.68"
         id="rect33" /><rect
         class="cls-1"
         x="467.62"
         y="623.73999"
         width="71.68"
         height="71.68"
         id="rect34" /><rect
         class="cls-1"
         x="321.04999"
         y="304.57001"
         width="71.68"
         height="71.68"
         id="rect35" /><rect
         class="cls-1"
         x="321.04999"
         y="410.95999"
         width="71.68"
         height="71.68"
         id="rect36" /><rect
         class="cls-1"
         x="321.04999"
         y="517.34998"
         width="71.68"
         height="71.68"
         id="rect37" /><rect
         class="cls-1"
         x="321.04999"
         y="623.73999"
         width="71.68"
         height="71.68"
         id="rect38" /><path
         class="cls-4"
         d="m 352.17,321.49 h -0.14 l -8.14,4.39 -1.22,-4.83 10.23,-5.47 h 5.4 v 46.8 h -6.12 v -40.9 z"
         id="path38" /><path
         class="cls-4"
         d="m 501.99,427.04 h -0.14 l -8.14,4.39 -1.22,-4.83 10.23,-5.47 h 5.4 v 46.8 H 502 v -40.9 z"
         id="path39" /><path
         class="cls-4"
         d="m 352.17,536.64 h -0.14 l -8.14,4.39 -1.22,-4.83 10.23,-5.47 h 5.4 v 46.8 h -6.12 v -40.9 z"
         id="path40" /><path
         class="cls-4"
         d="m 648.52,427.04 h -0.14 l -8.14,4.39 -1.22,-4.83 10.23,-5.47 h 5.4 v 46.8 h -6.12 v -40.9 z"
         id="path41" /><path
         class="cls-4"
         d="m 501.99,639.82 h -0.14 l -8.14,4.39 -1.22,-4.83 10.23,-5.47 h 5.4 v 46.8 H 502 v -40.9 z"
         id="path42" /><path
         class="cls-4"
         d="m 647.01,321.49 h -0.14 l -8.14,4.39 -1.22,-4.83 10.23,-5.47 h 5.4 v 46.8 h -6.12 v -40.9 z"
         id="path43" /><path
         class="cls-4"
         d="m 517.33,338.48 c 0,15.91 -5.9,24.7 -16.27,24.7 -9.14,0 -15.34,-8.57 -15.48,-24.05 0,-15.7 6.77,-24.34 16.27,-24.34 9.5,0 15.48,8.78 15.48,23.69 z m -25.42,0.72 c 0,12.17 3.74,19.08 9.5,19.08 6.48,0 9.58,-7.56 9.58,-19.51 0,-11.95 -2.95,-19.08 -9.5,-19.08 -5.54,0 -9.58,6.77 -9.58,19.51 z"
         id="path44" /><path
         class="cls-4"
         d="m 369.52,444.03 c 0,15.91 -5.9,24.7 -16.27,24.7 -9.14,0 -15.34,-8.57 -15.48,-24.05 0,-15.7 6.77,-24.34 16.27,-24.34 9.5,0 15.48,8.78 15.48,23.69 z m -25.41,0.72 c 0,12.17 3.74,19.08 9.5,19.08 6.48,0 9.58,-7.56 9.58,-19.51 0,-11.95 -2.95,-19.08 -9.5,-19.08 -5.54,0 -9.58,6.77 -9.58,19.51 z"
         id="path45" /><path
         class="cls-4"
         d="m 519.92,553.64 c 0,15.91 -5.9,24.7 -16.27,24.7 -9.14,0 -15.34,-8.57 -15.48,-24.05 0,-15.7 6.77,-24.34 16.27,-24.34 9.5,0 15.48,8.78 15.48,23.69 z m -25.41,0.72 c 0,12.17 3.74,19.08 9.5,19.08 6.48,0 9.58,-7.56 9.58,-19.51 0,-11.95 -2.95,-19.08 -9.5,-19.08 -5.54,0 -9.58,6.77 -9.58,19.51 z"
         id="path46" /><path
         class="cls-4"
         d="m 664.36,553.64 c 0,15.91 -5.9,24.7 -16.27,24.7 -9.14,0 -15.34,-8.57 -15.48,-24.05 0,-15.7 6.77,-24.34 16.27,-24.34 9.5,0 15.48,8.78 15.48,23.69 z m -25.42,0.72 c 0,12.17 3.74,19.08 9.5,19.08 6.48,0 9.58,-7.56 9.58,-19.51 0,-11.95 -2.95,-19.08 -9.5,-19.08 -5.54,0 -9.58,6.77 -9.58,19.51 z"
         id="path47" /><path
         class="cls-4"
         d="m 372.12,656.81 c 0,15.91 -5.9,24.7 -16.27,24.7 -9.14,0 -15.34,-8.57 -15.48,-24.05 0,-15.7 6.77,-24.34 16.27,-24.34 9.5,0 15.48,8.78 15.48,23.69 z m -25.42,0.72 c 0,12.17 3.74,19.08 9.5,19.08 6.48,0 9.58,-7.56 9.58,-19.51 0,-11.95 -2.95,-19.08 -9.5,-19.08 -5.54,0 -9.58,6.77 -9.58,19.51 z"
         id="path48" /><path
         class="cls-4"
         d="m 666.95,657.6 c 0,15.91 -5.9,24.7 -16.27,24.7 -9.14,0 -15.34,-8.57 -15.48,-24.05 0,-15.7 6.77,-24.34 16.27,-24.34 9.5,0 15.48,8.78 15.48,23.69 z m -25.41,0.72 c 0,12.17 3.74,19.08 9.5,19.08 6.48,0 9.58,-7.56 9.58,-19.51 0,-11.95 -2.95,-19.08 -9.5,-19.08 -5.54,0 -9.58,6.77 -9.58,19.51 z"
         id="path49" /></g></g></svg>
